<?xml version="1.0" standalone="no"?>
<!DOCTYPE svg PUBLIC "-//W3C//DTD SVG 20010904//EN"
 "http://www.w3.org/TR/2001/REC-SVG-20010904/DTD/svg10.dtd">
<svg version="1.0" xmlns="http://www.w3.org/2000/svg"
 width="240.000000pt" height="240.000000pt" viewBox="0 0 240.000000 240.000000"
 preserveAspectRatio="xMidYMid meet">
<metadata>
Created by potrace 1.11, written by Peter Selinger 2001-2013
</metadata>
<g transform="translate(0.000000,240.000000) scale(0.100000,-0.100000)"
fill="#000000" stroke="none">
<path d="M374 1743 c-3 -18 -4 -49 -2 -68 4 -31 2 -34 -17 -31 -45 8 -47 -1
-46 -198 l1 -186 -65 0 -66 0 3 -62 3 -63 35 -2 c19 -1 47 -2 63 -2 l27 -1 0
-190 0 -190 33 0 32 0 0 -62 0 -63 96 -3 c107 -3 108 -2 103 68 -1 19 -3 41
-3 48 -1 8 -21 12 -63 12 l-63 0 2 167 c2 206 1 213 -36 213 -29 0 -29 0 -29
64 l0 65 32 3 31 3 1 190 1 190 61 -1 c51 -1 62 2 63 15 5 70 5 92 0 100 -4 5
-48 11 -99 13 l-92 3 -6 -32z"/>
<path d="M1807 1765 c-4 -9 -3 -76 1 -108 2 -9 20 -13 63 -13 l61 1 2 -190 1
-190 31 -3 c30 -3 30 -3 30 -62 0 -35 -4 -60 -10 -61 -6 -1 -15 -2 -21 -4 -5
-1 -16 -3 -22 -3 -9 -2 -12 -36 -12 -134 1 -73 0 -159 0 -190 l-1 -57 -62 -3
-63 -3 -1 -50 c-1 -27 1 -55 3 -61 3 -7 38 -11 98 -12 105 0 104 -1 100 81 -2
45 -1 46 29 49 l31 3 2 130 c1 72 2 157 2 191 l1 61 53 -2 c28 -1 58 1 65 3
15 5 17 108 1 118 -6 3 -35 7 -65 7 l-54 0 -1 61 c0 33 0 118 1 188 1 117 0
127 -18 133 -11 3 -26 4 -33 3 -10 -2 -14 12 -15 52 0 30 -2 60 -2 65 -3 14
-190 14 -195 0z"/>
<path d="M779 1668 c-1 -5 -2 -23 -3 -40 -1 -32 -2 -33 -43 -32 -36 1 -41 -1
-33 -16 6 -11 5 -21 -2 -28 -9 -9 -9 -12 1 -12 7 0 10 -4 7 -9 -3 -5 -19 -7
-36 -6 -17 1 -34 -3 -37 -9 -9 -13 -11 -285 -3 -287 3 -1 18 -2 33 -3 33 -1
46 -18 39 -52 -4 -22 -1 -24 35 -24 37 0 40 -2 41 -27 0 -49 2 -51 28 -48 33
3 53 -17 47 -49 -5 -22 -2 -25 33 -28 34 -3 39 -6 40 -28 1 -14 2 -30 3 -36 0
-7 16 -11 36 -9 36 2 38 -1 35 -47 -1 -26 1 -28 39 -28 38 0 41 -2 40 -27 -3
-46 0 -52 24 -48 32 6 48 -8 49 -43 1 -30 3 -32 40 -32 37 0 38 1 38 35 0 19
3 36 8 36 4 1 20 2 37 3 28 2 30 4 28 39 -1 37 -1 37 39 37 40 0 40 0 36 35
-4 37 -1 39 50 37 22 -1 27 13 23 61 -2 14 6 17 39 17 40 0 41 1 38 30 -3 34
13 50 42 43 21 -6 37 20 34 55 -1 19 4 22 36 22 41 0 54 8 41 24 -5 6 -5 21 0
34 7 18 14 21 38 17 18 -3 30 0 33 8 3 10 3 219 -1 278 -1 13 -10 15 -41 13
-37 -3 -39 -1 -30 17 6 11 7 19 1 19 -5 0 -7 9 -4 19 4 16 0 19 -21 17 -14 -2
-26 2 -26 8 0 6 -4 5 -9 -3 -7 -11 -10 -10 -15 5 -3 11 -4 29 -1 42 5 26 16
24 -155 26 -141 2 -151 0 -143 -20 3 -8 3 -24 -1 -37 -4 -18 -12 -23 -38 -23
-31 1 -33 -1 -36 -35 -3 -35 -4 -36 -40 -34 -34 1 -37 4 -34 28 4 33 -18 58
-40 46 -22 -12 -40 13 -36 47 l3 28 -153 0 c-83 1 -153 -2 -153 -6z"/>
</g>
</svg>
